<svg xmlns="http://www.w3.org/2000/svg" viewBox="0 0 64 64" fill="none">
  <path d="M8 28 Q8 18 20 18 L44 18 Q56 18 56 28 L54 44 Q52 52 44 52 L38 52 Q34 48 30 48 Q26 48 22 52 L16 52 Q8 52 8 44 Z" fill="currentColor"/>
  <rect x="14" y="31" width="11" height="3.5" rx="1.75" fill="white" opacity="0.7"/>
  <rect x="18.25" y="27" width="3.5" height="11" rx="1.75" fill="white" opacity="0.7"/>
  <circle cx="41" cy="29" r="2.8" fill="white" opacity="0.7"/>
  <circle cx="48" cy="34" r="2.8" fill="white" opacity="0.7"/>
  <circle cx="41" cy="39" r="2.8" fill="white" opacity="0.7"/>
  <circle cx="34" cy="34" r="2.8" fill="white" opacity="0.7"/>
  <rect x="29" y="27" width="6" height="4" rx="2" fill="white" opacity="0.4"/>
</svg>
